<?xml version="1.0" encoding="UTF-8"?>
<svg xmlns="http://www.w3.org/2000/svg" version="1.1" xmlns:xlink="http://www.w3.org/1999/xlink" viewBox="0 0 1000 1000">
  <defs>
    <style>
      .cls-1 {
        fill: #319cf4;
      }

      .cls-2 {
        fill: #fff;
      }

      .cls-3 {
        fill: none;
      }

      .cls-4 {
        clip-path: url(#clippath-1);
      }

      .cls-5 {
        fill: #dd5e76;
      }

      .cls-6 {
        fill: #ff7186;
      }

      .cls-7 {
        clip-path: url(#clippath);
      }
    </style>
    <clipPath id="clippath">
      <path class="cls-3" d="M675.2,324.44c.1-.45.11-.91,0-1.37v-123.58s0,0,0,0v-108.03c0-.06-.01-.12-.02-.18-.01-9.91-6.02-19.71-15.6-25.23-10.36-5.97-22.04-5.91-30.01-4.8-13.15,1.83-24.58,7.53-32.2,16.06-7.92,8.88-11.32,20.9-9.17,31.56-15.83-2.56-32.61,2.55-45.13,14.07-13.46,12.4-19.3,29.96-15.6,46.98,2.08,9.57,7.66,17.58,15.19,22.06-2.65,3.91-4.48,8.61-5.3,13.8-.87,5.48-.51,10.99,1,15.94-14.4,9.51-23.2,25.88-23.54,43.94-.35,18.35,8.05,35.31,22.47,45.35,3.6,2.51,14.37,9.25,25.91,9.25,1.62,0,3.26-.15,4.89-.44-1.35,9.82,1.22,20.63,7.23,30.47,10,16.36,23.78,27.92,37.8,31.71,6.63,1.79,13.25,2.67,19.56,2.67,11.43,0,21.9-2.88,29.82-8.45,7.01-4.94,13.13-17.29,12.69-25.56,0,0,0-.02,0-.03v-26.17Z"/>
    </clipPath>
    <clipPath id="clippath-1">
      <path class="cls-3" d="M826.2,243.19c1.5-4.95,1.87-10.45,1-15.94-.82-5.19-2.65-9.89-5.3-13.8,7.53-4.48,13.11-12.49,15.19-22.06,3.7-17.02-2.14-34.58-15.6-46.98-12.52-11.52-29.3-16.64-45.13-14.07,2.15-10.66-1.24-22.68-9.17-31.56-7.61-8.53-19.05-14.24-32.2-16.06-7.97-1.11-19.66-1.17-30.01,4.8-9.58,5.53-15.59,15.33-15.6,25.23,0,.06-.02.12-.02.18v108.03s0,0,0,0v123.58c-.11.46-.1.92,0,1.37v26.17s0,.02,0,.03c-.43,8.27,5.68,20.62,12.69,25.56,7.91,5.57,18.39,8.45,29.82,8.45,6.32,0,12.93-.88,19.56-2.67,14.02-3.79,27.8-15.35,37.8-31.71,6.01-9.83,8.58-20.65,7.23-30.47,1.63.3,3.27.44,4.89.44,11.54,0,22.31-6.74,25.91-9.25,14.42-10.04,22.82-27,22.47-45.35-.34-18.07-9.14-34.43-23.54-43.94Z"/>
    </clipPath>
  </defs>
  <!-- Generator: Adobe Illustrator 28.6.0, SVG Export Plug-In . SVG Version: 1.2.0 Build 709)  -->
  <g>
    <g id="Layer_1">
      <g>
        <path class="cls-1" d="M894.65,370.79c-.25,5.6-.65,11.13-1.07,16.65-7.27,120.96-93.25,159.62-157.93,235.56-19.99,23.5-9.34,116.59-5.04,143.87,14.04,89.7,65.42,187.49,65.42,187.49-84.64,49.84-344.18,69.68-394.64,0,0,0,11.81-130.93-11.82-167.46-23.62-36.53-81.52-10.64-147.67-7.09-66.16,3.54-70.37-35.46-67.32-57.8,2.64-19.87,14.7-37.11,12.97-45.43-1.81-8.25-22.46-15.26-27.17-22.34-4.71-7.09,18.92-28.36,18.92-28.36,0,0-17.76-5.28-20.07-20.61-2.4-15.34,20.07-42.46,15.36-48.32-4.79-5.94-70.37-40.16-69.21-55.49,1.16-15.34,78.42-82.24,86.56-130.03,1.01-5.94,1.4-14.84,1.16-27.04-2.15-13.36-3.22-27.05-3.22-40.98,0-18.47,1.91-36.52,5.54-54.01C217.53,111.89,349.36,36.36,408.58,22.18,448.64,8.17,492.33.5,538.09.5c23.21,0,45.84,1.98,67.73,5.85-153.38,7.26-275.46,127.31-275.46,274.48s129.93,274.81,290.07,274.81c126.95,0,234.82-77.26,274.22-184.85Z"/>
        <g>
          <g>
            <path class="cls-5" d="M449.39,450.63s-21.66,1.3-53.45-58.35c-28.59-53.64-42.59-83.83-52.27-83.71-9.69.11-20.36,17.4-16.12,33.55,4.24,16.15,26.27,106.97,75.13,153.91,48.85,46.94,147.19,52.01,147.19,52.01l-.84-43.62-99.63-53.79Z"/>
            <path class="cls-5" d="M513.06,415.43c-2.48-5.77-4.04-21.79.78-25.83,4.88-4.1,12.3-.97,17.59,2.6,49.63,33.49,55.22,86.68,122.7,130.08-5.64,3.87-13.24,2.48-19.88.87-16.14-3.91-32.08-8.39-48.02-13.03-14.87-4.32-18.12,2.05-26.88-11.17-15.38-23.22-33.74-54.36-46.29-83.53Z"/>
          </g>
          <path class="cls-6" d="M776.34,622.03c-7.85-34.2-22.96-68.02-47.72-92.92-50.16-50.43-122.71-56.24-145.7-61.26-42.18-9.22-88.33-46.95-122.79-72.95-10.31-7.78-25.07-21.59-36.67-12.05-7.03,18.85,15.43,60.97,36.94,83.32,30.41,31.62,62.5,40.1,79.87,80.35-67.89,3.31-121.46-24.29-140.28-39.08-31.32-24.65-55.73-64.39-78.34-97.21-8.62-12.52-19-24.58-32.91-30.76-13.91-6.17-31.12-8.41-41.31,2.89,25.35,105.86,94.44,188.79,192.28,232.57,34.45,15.42,87.55,22.68,122.71,36.43,170.37,66.6,191,205.57,191,205.57,0,0,51.26-111.34,22.91-234.91Z"/>
        </g>
        <g>
          <path class="cls-5" d="M514.82,265.65c-.35,18.35,8.05,35.31,22.47,45.35,3.6,2.51,14.37,9.25,25.91,9.25,1.62,0,3.26-.15,4.89-.44-1.35,9.82,1.22,20.63,7.23,30.47,10,16.36,23.78,27.92,37.8,31.71,6.63,1.79,13.25,2.67,19.56,2.67,11.43,0,21.9-2.88,29.82-8.45,7.01-4.94,13.13-17.29,12.69-25.56,0,0,0-.02,0-.03v-26.17c.1-.45.11-.91,0-1.37v-123.58s0,0,0,0v-108.03c0-.06-.01-.12-.02-.18-.01-9.91-6.02-19.71-15.6-25.23-10.36-5.97-22.04-5.91-30.01-4.8-13.15,1.83-24.58,7.53-32.2,16.06-7.92,8.88-11.32,20.9-9.17,31.56-15.83-2.56-32.61,2.55-45.13,14.07-13.46,12.4-19.3,29.96-15.6,46.98,2.08,9.57,7.66,17.58,15.19,22.06-2.65,3.91-4.48,8.61-5.3,13.8-.87,5.48-.51,10.99,1,15.94-14.4,9.51-23.2,25.88-23.54,43.94Z"/>
          <path class="cls-6" d="M826.2,243.19c1.5-4.95,1.87-10.45,1-15.94-.82-5.19-2.65-9.89-5.3-13.8,7.53-4.48,13.11-12.49,15.19-22.06,3.7-17.02-2.14-34.58-15.6-46.98-12.52-11.52-29.3-16.64-45.13-14.07,2.15-10.66-1.24-22.68-9.17-31.56-7.61-8.53-19.05-14.24-32.2-16.06-7.97-1.11-19.66-1.17-30.01,4.8-9.58,5.53-15.59,15.33-15.6,25.23,0,.06-.02.12-.02.18v108.03s0,0,0,0v123.58c-.11.46-.1.92,0,1.37v26.17s0,.02,0,.03c-.43,8.27,5.68,20.62,12.69,25.56,7.91,5.57,18.39,8.45,29.82,8.45,6.32,0,12.93-.88,19.56-2.67,14.02-3.79,27.8-15.35,37.8-31.71,6.01-9.83,8.58-20.65,7.23-30.47,1.63.3,3.27.44,4.89.44,11.54,0,22.31-6.74,25.91-9.25,14.42-10.04,22.82-27,22.47-45.35-.34-18.07-9.14-34.43-23.54-43.94Z"/>
          <path class="cls-2" d="M744.28,135.2h0c-18.75,10.97-26.19,33.12-16.62,49.48h0c18.75-10.97,26.19-33.12,16.62-49.48Z"/>
          <path class="cls-2" d="M794.87,167.13h0c-5.55,38.78-37.5,66.29-71.38,61.45h0c5.55-38.78,37.5-66.29,71.38-61.45Z"/>
          <path class="cls-2" d="M620.86,135.2h0c18.75,10.97,26.19,33.12,16.62,49.48h0c-18.75-10.97-26.19-33.12-16.62-49.48Z"/>
          <path class="cls-2" d="M570.27,164.49h0c5.55,38.78,37.5,66.29,71.38,61.45h0c-5.55-38.78-37.5-66.29-71.38-61.45Z"/>
          <g class="cls-7">
            <g>
              <path class="cls-2" d="M868.24,290.32c-23.42,0-35.25-8.3-46.69-16.33-11.26-7.9-21.9-15.37-43.65-15.37s-32.38,7.47-43.65,15.37c-11.44,8.03-23.26,16.33-46.68,16.33s-35.24-8.3-46.68-16.33c-11.26-7.9-21.9-15.37-43.65-15.37s-32.38,7.47-43.64,15.37c-11.44,8.03-23.26,16.33-46.68,16.33s-35.24-8.3-46.68-16.33c-11.26-7.9-21.9-15.37-43.64-15.37v-5.28c23.42,0,35.24,8.3,46.68,16.33,11.26,7.9,21.9,15.37,43.64,15.37s32.38-7.47,43.64-15.37c11.44-8.03,23.26-16.33,46.68-16.33s35.24,8.3,46.68,16.33c11.26,7.9,21.9,15.37,43.65,15.37s32.38-7.47,43.65-15.37c11.44-8.03,23.26-16.33,46.68-16.33s35.25,8.3,46.69,16.33c11.26,7.9,21.9,15.37,43.65,15.37s32.39-7.47,43.65-15.37c11.44-8.03,23.27-16.33,46.69-16.33v5.28c-21.75,0-32.39,7.47-43.65,15.37-11.44,8.03-23.27,16.33-46.69,16.33Z"/>
              <path class="cls-2" d="M868.24,334.8c-23.42,0-35.25-8.3-46.69-16.33-11.26-7.9-21.9-15.37-43.65-15.37s-32.38,7.47-43.65,15.37c-11.44,8.03-23.26,16.33-46.68,16.33s-35.24-8.3-46.68-16.33c-11.26-7.9-21.9-15.37-43.65-15.37s-32.38,7.47-43.64,15.37c-11.44,8.03-23.26,16.33-46.68,16.33s-35.24-8.3-46.68-16.33c-11.26-7.9-21.9-15.37-43.64-15.37v-5.28c23.42,0,35.24,8.3,46.68,16.33,11.26,7.9,21.9,15.37,43.64,15.37s32.38-7.47,43.64-15.37c11.44-8.03,23.26-16.33,46.68-16.33s35.24,8.3,46.68,16.33c11.26,7.9,21.9,15.37,43.65,15.37s32.38-7.47,43.65-15.37c11.44-8.03,23.26-16.33,46.68-16.33s35.25,8.3,46.69,16.33c11.26,7.9,21.9,15.37,43.65,15.37s32.39-7.47,43.65-15.37c11.44-8.03,23.27-16.33,46.69-16.33v5.28c-21.75,0-32.39,7.47-43.65,15.37-11.44,8.03-23.27,16.33-46.69,16.33Z"/>
              <path class="cls-2" d="M868.24,379.27c-23.42,0-35.25-8.3-46.69-16.33-11.26-7.91-21.9-15.37-43.65-15.37s-32.38,7.47-43.65,15.37c-11.44,8.03-23.26,16.33-46.68,16.33s-35.24-8.3-46.68-16.33c-11.26-7.91-21.9-15.37-43.65-15.37s-32.38,7.47-43.64,15.37c-11.44,8.03-23.26,16.33-46.68,16.33s-35.24-8.3-46.68-16.33c-11.26-7.91-21.9-15.37-43.64-15.37v-5.28c23.42,0,35.24,8.3,46.68,16.33,11.26,7.91,21.9,15.37,43.64,15.37s32.38-7.47,43.64-15.37c11.44-8.03,23.26-16.33,46.68-16.33s35.24,8.3,46.68,16.33c11.26,7.91,21.9,15.37,43.65,15.37s32.38-7.47,43.65-15.37c11.44-8.03,23.26-16.33,46.68-16.33s35.25,8.3,46.69,16.33c11.26,7.91,21.9,15.37,43.65,15.37s32.39-7.47,43.65-15.37c11.44-8.03,23.27-16.33,46.69-16.33v5.28c-21.75,0-32.39,7.47-43.65,15.37-11.44,8.03-23.27,16.33-46.69,16.33Z"/>
              <path class="cls-2" d="M868.24,423.75c-23.42,0-35.25-8.3-46.69-16.33-11.26-7.9-21.9-15.37-43.65-15.37s-32.38,7.47-43.65,15.37c-11.44,8.03-23.26,16.33-46.68,16.33s-35.24-8.3-46.68-16.33c-11.26-7.9-21.9-15.37-43.65-15.37s-32.38,7.47-43.64,15.37c-11.44,8.03-23.26,16.33-46.68,16.33s-35.24-8.3-46.68-16.33c-11.26-7.9-21.9-15.37-43.64-15.37v-5.28c23.42,0,35.24,8.3,46.68,16.33,11.26,7.9,21.9,15.37,43.64,15.37s32.38-7.47,43.64-15.37c11.44-8.03,23.26-16.33,46.68-16.33s35.24,8.3,46.68,16.33c11.26,7.9,21.9,15.37,43.65,15.37s32.38-7.47,43.65-15.37c11.44-8.03,23.26-16.33,46.68-16.33s35.25,8.3,46.69,16.33c11.26,7.9,21.9,15.37,43.65,15.37s32.39-7.47,43.65-15.37c11.44-8.03,23.27-16.33,46.69-16.33v5.28c-21.75,0-32.39,7.47-43.65,15.37-11.44,8.03-23.27,16.33-46.69,16.33Z"/>
            </g>
          </g>
          <g class="cls-4">
            <g>
              <path class="cls-2" d="M868.24,292.96c-23.42,0-35.25-8.3-46.69-16.33-11.26-7.9-21.9-15.37-43.65-15.37s-32.38,7.47-43.65,15.37c-11.44,8.03-23.26,16.33-46.68,16.33s-35.24-8.3-46.68-16.33c-11.26-7.9-21.9-15.37-43.65-15.37s-32.38,7.47-43.64,15.37c-11.44,8.03-23.26,16.33-46.68,16.33s-35.24-8.3-46.68-16.33c-11.26-7.9-21.9-15.37-43.64-15.37v-5.28c23.42,0,35.24,8.3,46.68,16.33,11.26,7.9,21.9,15.37,43.64,15.37s32.38-7.47,43.64-15.37c11.44-8.03,23.26-16.33,46.68-16.33s35.24,8.3,46.68,16.33c11.26,7.9,21.9,15.37,43.65,15.37s32.38-7.47,43.65-15.37c11.44-8.03,23.26-16.33,46.68-16.33s35.25,8.3,46.69,16.33c11.26,7.9,21.9,15.37,43.65,15.37s32.39-7.47,43.65-15.37c11.44-8.03,23.27-16.33,46.69-16.33v5.28c-21.75,0-32.39,7.47-43.65,15.37-11.44,8.03-23.27,16.33-46.69,16.33Z"/>
              <path class="cls-2" d="M868.24,337.44c-23.42,0-35.25-8.3-46.69-16.33-11.26-7.9-21.9-15.37-43.65-15.37s-32.38,7.47-43.65,15.37c-11.44,8.03-23.26,16.33-46.68,16.33s-35.24-8.3-46.68-16.33c-11.26-7.9-21.9-15.37-43.65-15.37s-32.38,7.47-43.64,15.37c-11.44,8.03-23.26,16.33-46.68,16.33s-35.24-8.3-46.68-16.33c-11.26-7.9-21.9-15.37-43.64-15.37v-5.28c23.42,0,35.24,8.3,46.68,16.33,11.26,7.9,21.9,15.37,43.64,15.37s32.38-7.47,43.64-15.37c11.44-8.03,23.26-16.33,46.68-16.33s35.24,8.3,46.68,16.33c11.26,7.9,21.9,15.37,43.65,15.37s32.38-7.47,43.65-15.37c11.44-8.03,23.26-16.33,46.68-16.33s35.25,8.3,46.69,16.33c11.26,7.9,21.9,15.37,43.65,15.37s32.39-7.47,43.65-15.37c11.44-8.03,23.27-16.33,46.69-16.33v5.28c-21.75,0-32.39,7.47-43.65,15.37-11.44,8.03-23.27,16.33-46.69,16.33Z"/>
              <path class="cls-2" d="M868.24,381.92c-23.42,0-35.25-8.3-46.69-16.33-11.26-7.91-21.9-15.37-43.65-15.37s-32.38,7.47-43.65,15.37c-11.44,8.03-23.26,16.33-46.68,16.33s-35.24-8.3-46.68-16.33c-11.26-7.91-21.9-15.37-43.65-15.37s-32.38,7.47-43.64,15.37c-11.44,8.03-23.26,16.33-46.68,16.33s-35.24-8.3-46.68-16.33c-11.26-7.91-21.9-15.37-43.64-15.37v-5.28c23.42,0,35.24,8.3,46.68,16.33,11.26,7.91,21.9,15.37,43.64,15.37s32.38-7.47,43.64-15.37c11.44-8.03,23.26-16.33,46.68-16.33s35.24,8.3,46.68,16.33c11.26,7.91,21.9,15.37,43.65,15.37s32.38-7.47,43.65-15.37c11.44-8.03,23.26-16.33,46.68-16.33s35.25,8.3,46.69,16.33c11.26,7.91,21.9,15.37,43.65,15.37s32.39-7.47,43.65-15.37c11.44-8.03,23.27-16.33,46.69-16.33v5.28c-21.75,0-32.39,7.47-43.65,15.37-11.44,8.03-23.27,16.33-46.69,16.33Z"/>
              <path class="cls-2" d="M868.24,426.39c-23.42,0-35.25-8.3-46.69-16.33-11.26-7.9-21.9-15.37-43.65-15.37s-32.38,7.47-43.65,15.37c-11.44,8.03-23.26,16.33-46.68,16.33s-35.24-8.3-46.68-16.33c-11.26-7.9-21.9-15.37-43.65-15.37s-32.38,7.47-43.64,15.37c-11.44,8.03-23.26,16.33-46.68,16.33s-35.24-8.3-46.68-16.33c-11.26-7.9-21.9-15.37-43.64-15.37v-5.28c23.42,0,35.24,8.3,46.68,16.33,11.26,7.9,21.9,15.37,43.64,15.37s32.38-7.47,43.64-15.37c11.44-8.03,23.26-16.33,46.68-16.33s35.24,8.3,46.68,16.33c11.26,7.9,21.9,15.37,43.65,15.37s32.38-7.47,43.65-15.37c11.44-8.03,23.26-16.33,46.68-16.33s35.25,8.3,46.69,16.33c11.26,7.9,21.9,15.37,43.65,15.37s32.39-7.47,43.65-15.37c11.44-8.03,23.27-16.33,46.69-16.33v5.28c-21.75,0-32.39,7.47-43.65,15.37-11.44,8.03-23.27,16.33-46.69,16.33Z"/>
            </g>
          </g>
        </g>
      </g>
    </g>
  </g>
</svg>